<svg width="352" height="61" viewBox="0 0 352 61" fill="none" xmlns="http://www.w3.org/2000/svg">
<path d="M3 12.7646L118.063 12.8431" stroke="#CE2B28" stroke-width="5" stroke-linecap="round"/>
<path d="M116.473 12.7647L231.537 12.8431" stroke="#E5E5E7" stroke-width="5" stroke-linecap="round"/>
<path d="M233.465 12.7646L348.528 12.8431" stroke="#E5E5E7" stroke-width="5" stroke-linecap="round"/>
<path d="M43 9C43 4.02944 47.0294 0 52 0H58C62.9706 0 67 4.02944 67 9V14C67 18.9706 62.9706 23 58 23H52C47.0294 23 43 18.9706 43 14V9Z" fill="#CB2B28"/>
<path d="M58.2144 15.4237V16.7037H52.4704V15.4237H54.7424V9.1837C54.6464 9.3117 54.4971 9.45037 54.2944 9.5997C54.0918 9.73837 53.8624 9.8717 53.6064 9.9997C53.3504 10.1277 53.0944 10.2344 52.8384 10.3197C52.5824 10.3944 52.3478 10.4317 52.1344 10.4317V9.0877C52.3691 9.0877 52.6251 9.0237 52.9024 8.8957C53.1904 8.75704 53.4678 8.59704 53.7344 8.4157C54.0011 8.23437 54.2251 8.0637 54.4064 7.9037C54.5984 7.7437 54.7104 7.6317 54.7424 7.5677H56.1824V15.4237H58.2144Z" fill="white"/>
<path d="M174 9C174 4.02944 178.029 0 183 0H189C193.971 0 198 4.02944 198 9V14C198 18.9706 193.971 23 189 23H183C178.029 23 174 18.9706 174 14V9Z" fill="#E5E5E7"/>
<path d="M182.407 16.7037C182.407 16.277 182.439 15.877 182.503 15.5037C182.577 15.1304 182.705 14.773 182.887 14.4317C183.079 14.0904 183.345 13.765 183.687 13.4557C184.028 13.1357 184.471 12.8264 185.015 12.5277C185.335 12.3464 185.655 12.1757 185.975 12.0157C186.305 11.8557 186.609 11.685 186.887 11.5037C187.175 11.3224 187.404 11.125 187.575 10.9117C187.745 10.6877 187.831 10.4317 187.831 10.1437C187.831 9.89837 187.756 9.6637 187.607 9.4397C187.468 9.20504 187.255 9.01837 186.967 8.8797C186.689 8.73037 186.343 8.6557 185.927 8.6557C185.607 8.6557 185.313 8.69837 185.047 8.7837C184.791 8.86904 184.556 8.98104 184.343 9.1197C184.14 9.2477 183.959 9.38637 183.799 9.5357C183.649 9.67437 183.521 9.80237 183.415 9.9197L182.535 8.9277C182.62 8.8317 182.764 8.7037 182.967 8.5437C183.169 8.37304 183.425 8.20237 183.735 8.0317C184.044 7.86104 184.401 7.71704 184.807 7.5997C185.223 7.4717 185.676 7.4077 186.167 7.4077C186.828 7.4077 187.393 7.52504 187.863 7.7597C188.343 7.9837 188.711 8.29304 188.967 8.6877C189.223 9.0717 189.351 9.5037 189.351 9.9837C189.351 10.3997 189.26 10.7624 189.079 11.0717C188.908 11.381 188.684 11.653 188.407 11.8877C188.14 12.1224 187.857 12.325 187.559 12.4957C187.271 12.6557 187.009 12.7944 186.775 12.9117C186.295 13.1464 185.884 13.3597 185.543 13.5517C185.201 13.7437 184.919 13.9357 184.695 14.1277C184.481 14.309 184.305 14.501 184.167 14.7037C184.039 14.9064 183.943 15.1464 183.879 15.4237H189.527V16.7037H182.407Z" fill="#9C9C9C"/>
<path d="M282 10C282 5.02944 286.029 1 291 1H297C301.971 1 306 5.02944 306 10V15C306 19.9706 301.971 24 297 24H291C286.029 24 282 19.9706 282 15V10Z" fill="#E5E5E7"/>
<path d="M295.408 12.224C295.866 12.2987 296.261 12.4693 296.592 12.736C296.922 12.992 297.178 13.3227 297.36 13.728C297.541 14.1227 297.632 14.5707 297.632 15.072C297.632 15.7227 297.472 16.2933 297.152 16.784C296.842 17.2853 296.4 17.6693 295.824 17.936C295.248 18.2133 294.576 18.352 293.808 18.352C292.997 18.352 292.282 18.1973 291.664 17.888C291.056 17.5893 290.581 17.1627 290.24 16.608L291.184 15.664C291.429 16.0907 291.76 16.432 292.176 16.688C292.602 16.944 293.146 17.072 293.808 17.072C294.544 17.072 295.12 16.9013 295.536 16.56C295.962 16.2293 296.176 15.7333 296.176 15.072C296.176 14.4 295.946 13.8667 295.488 13.472C295.04 13.0667 294.384 12.864 293.52 12.864H293.104V11.68H293.552C294.32 11.68 294.906 11.4933 295.312 11.12C295.728 10.7467 295.936 10.2827 295.936 9.728C295.936 9.344 295.845 9.02933 295.664 8.784C295.482 8.53867 295.237 8.35733 294.928 8.24C294.618 8.112 294.261 8.048 293.856 8.048C293.269 8.048 292.752 8.176 292.304 8.432C291.866 8.67733 291.525 9.024 291.28 9.472L290.416 8.576C290.608 8.21333 290.88 7.89867 291.232 7.632C291.594 7.36533 292.01 7.15733 292.48 7.008C292.96 6.85867 293.466 6.784 294 6.784C294.672 6.784 295.264 6.90133 295.776 7.136C296.298 7.37067 296.704 7.70133 296.992 8.128C297.28 8.55467 297.424 9.056 297.424 9.632C297.424 10.048 297.344 10.4427 297.184 10.816C297.024 11.1787 296.789 11.488 296.48 11.744C296.181 11.9893 295.824 12.1493 295.408 12.224Z" fill="#9C9C9C"/>
<path d="M28.9251 41.07C28.2718 41.07 27.6605 40.9347 27.0911 40.664C26.5218 40.3933 26.0225 40.02 25.5931 39.544C25.1731 39.068 24.8418 38.5267 24.5991 37.92C24.3658 37.3133 24.2491 36.6693 24.2491 35.988C24.2491 35.3067 24.3658 34.6673 24.5991 34.07C24.8418 33.4727 25.1731 32.9407 25.5931 32.474C26.0225 32.0073 26.5218 31.6433 27.0911 31.382C27.6698 31.1207 28.2998 30.99 28.9811 30.99C29.9238 30.99 30.7171 31.1907 31.3611 31.592C32.0145 31.984 32.5045 32.5067 32.8311 33.16L31.6271 34.028C31.3658 33.4867 30.9925 33.0807 30.5071 32.81C30.0311 32.5393 29.5085 32.404 28.9391 32.404C28.4725 32.404 28.0478 32.502 27.6651 32.698C27.2825 32.894 26.9511 33.1647 26.6711 33.51C26.4005 33.846 26.1951 34.2333 26.0551 34.672C25.9151 35.1013 25.8451 35.554 25.8451 36.03C25.8451 36.534 25.9245 37.0053 26.0831 37.444C26.2418 37.8827 26.4658 38.27 26.7551 38.606C27.0445 38.9327 27.3851 39.1893 27.7771 39.376C28.1691 39.5627 28.5938 39.656 29.0511 39.656C29.5925 39.656 30.1058 39.5207 30.5911 39.25C31.0858 38.97 31.5478 38.5547 31.9771 38.004V39.6C31.1091 40.58 30.0918 41.07 28.9251 41.07ZM31.8231 37.136H29.7371V35.974H33.1391V41H31.8231V37.136ZM38.0496 41.14C37.4803 41.14 36.9623 41.042 36.4956 40.846C36.0383 40.6407 35.6416 40.3653 35.3056 40.02C34.9696 39.6653 34.7083 39.264 34.5216 38.816C34.3443 38.3587 34.2556 37.8733 34.2556 37.36C34.2556 36.6693 34.4143 36.0393 34.7316 35.47C35.049 34.8913 35.4923 34.4293 36.0616 34.084C36.631 33.7293 37.2983 33.552 38.0636 33.552C38.829 33.552 39.487 33.7293 40.0376 34.084C40.5976 34.4293 41.0316 34.8867 41.3396 35.456C41.6476 36.0253 41.8016 36.6367 41.8016 37.29C41.8016 37.402 41.797 37.5093 41.7876 37.612C41.7783 37.7053 41.769 37.7847 41.7596 37.85H35.8936C35.9216 38.2793 36.0383 38.6573 36.2436 38.984C36.4583 39.3013 36.729 39.5533 37.0556 39.74C37.3823 39.9173 37.7323 40.006 38.1056 40.006C38.5163 40.006 38.9036 39.9033 39.2676 39.698C39.641 39.4927 39.893 39.222 40.0236 38.886L41.3396 39.264C41.181 39.6187 40.9383 39.9407 40.6116 40.23C40.2943 40.51 39.9163 40.734 39.4776 40.902C39.039 41.0607 38.563 41.14 38.0496 41.14ZM35.8516 36.828H40.2756C40.2476 36.408 40.1263 36.0393 39.9116 35.722C39.7063 35.3953 39.4403 35.1433 39.1136 34.966C38.7963 34.7793 38.4416 34.686 38.0496 34.686C37.667 34.686 37.3123 34.7793 36.9856 34.966C36.6683 35.1433 36.407 35.3953 36.2016 35.722C35.9963 36.0393 35.8796 36.408 35.8516 36.828ZM49.6238 41H48.0838V36.898C48.0838 36.2167 47.9718 35.7173 47.7478 35.4C47.5331 35.0827 47.2111 34.924 46.7818 34.924C46.4831 34.924 46.1845 34.9987 45.8858 35.148C45.5965 35.2973 45.3351 35.5027 45.1018 35.764C44.8685 36.016 44.7005 36.31 44.5978 36.646V41H43.0578V33.678H44.4578V35.148C44.6445 34.8213 44.8871 34.5413 45.1858 34.308C45.4938 34.0653 45.8391 33.8787 46.2218 33.748C46.6045 33.6173 47.0105 33.552 47.4398 33.552C47.8785 33.552 48.2378 33.6313 48.5178 33.79C48.8071 33.9487 49.0311 34.168 49.1898 34.448C49.3578 34.7187 49.4698 35.036 49.5258 35.4C49.5911 35.7547 49.6238 36.1327 49.6238 36.534V41ZM54.7293 41.14C54.16 41.14 53.642 41.042 53.1753 40.846C52.718 40.6407 52.3213 40.3653 51.9853 40.02C51.6493 39.6653 51.388 39.264 51.2013 38.816C51.024 38.3587 50.9353 37.8733 50.9353 37.36C50.9353 36.6693 51.094 36.0393 51.4113 35.47C51.7286 34.8913 52.172 34.4293 52.7413 34.084C53.3106 33.7293 53.978 33.552 54.7433 33.552C55.5086 33.552 56.1666 33.7293 56.7173 34.084C57.2773 34.4293 57.7113 34.8867 58.0193 35.456C58.3273 36.0253 58.4813 36.6367 58.4813 37.29C58.4813 37.402 58.4766 37.5093 58.4673 37.612C58.458 37.7053 58.4486 37.7847 58.4393 37.85H52.5733C52.6013 38.2793 52.718 38.6573 52.9233 38.984C53.138 39.3013 53.4086 39.5533 53.7353 39.74C54.062 39.9173 54.412 40.006 54.7853 40.006C55.196 40.006 55.5833 39.9033 55.9473 39.698C56.3206 39.4927 56.5726 39.222 56.7033 38.886L58.0193 39.264C57.8606 39.6187 57.618 39.9407 57.2913 40.23C56.974 40.51 56.596 40.734 56.1573 40.902C55.7186 41.0607 55.2426 41.14 54.7293 41.14ZM52.5313 36.828H56.9553C56.9273 36.408 56.806 36.0393 56.5913 35.722C56.386 35.3953 56.12 35.1433 55.7933 34.966C55.476 34.7793 55.1213 34.686 54.7293 34.686C54.3466 34.686 53.992 34.7793 53.6653 34.966C53.348 35.1433 53.0866 35.3953 52.8813 35.722C52.676 36.0393 52.5593 36.408 52.5313 36.828ZM63.8535 35.008C63.2561 35.0173 62.7241 35.1527 62.2575 35.414C61.8001 35.6753 61.4735 36.044 61.2775 36.52V41H59.7375V33.678H61.1655V35.316C61.4175 34.812 61.7488 34.4107 62.1595 34.112C62.5701 33.804 63.0041 33.636 63.4615 33.608C63.5548 33.608 63.6295 33.608 63.6855 33.608C63.7508 33.608 63.8068 33.6127 63.8535 33.622V35.008ZM64.4281 38.858C64.4281 38.3913 64.5588 37.9853 64.8201 37.64C65.0908 37.2853 65.4595 37.0147 65.9261 36.828C66.3928 36.632 66.9341 36.534 67.5501 36.534C67.8768 36.534 68.2081 36.5573 68.5441 36.604C68.8895 36.6507 69.1928 36.7253 69.4541 36.828V36.366C69.4541 35.8527 69.3001 35.4513 68.9921 35.162C68.6841 34.8727 68.2408 34.728 67.6621 34.728C67.2515 34.728 66.8641 34.8027 66.5001 34.952C66.1361 35.092 65.7488 35.2927 65.3381 35.554L64.8201 34.518C65.3055 34.1913 65.7908 33.9487 66.2761 33.79C66.7708 33.6313 67.2888 33.552 67.8301 33.552C68.8101 33.552 69.5801 33.8133 70.1401 34.336C70.7095 34.8493 70.9941 35.582 70.9941 36.534V39.264C70.9941 39.4413 71.0221 39.5673 71.0781 39.642C71.1435 39.7167 71.2508 39.7587 71.4001 39.768V41C71.2601 41.028 71.1341 41.0467 71.0221 41.056C70.9101 41.0653 70.8168 41.07 70.7421 41.07C70.4155 41.07 70.1681 40.9907 70.0001 40.832C69.8321 40.6733 69.7341 40.4867 69.7061 40.272L69.6641 39.852C69.3468 40.2627 68.9408 40.58 68.4461 40.804C67.9515 41.028 67.4521 41.14 66.9481 41.14C66.4628 41.14 66.0288 41.042 65.6461 40.846C65.2635 40.6407 64.9648 40.3653 64.7501 40.02C64.5355 39.6747 64.4281 39.2873 64.4281 38.858ZM69.0901 39.306C69.2021 39.1847 69.2908 39.0633 69.3561 38.942C69.4215 38.8207 69.4541 38.7133 69.4541 38.62V37.78C69.1928 37.6773 68.9175 37.6027 68.6281 37.556C68.3388 37.5 68.0541 37.472 67.7741 37.472C67.2141 37.472 66.7568 37.584 66.4021 37.808C66.0568 38.032 65.8841 38.34 65.8841 38.732C65.8841 38.9467 65.9401 39.152 66.0521 39.348C66.1735 39.544 66.3415 39.7027 66.5561 39.824C66.7801 39.9453 67.0555 40.006 67.3821 40.006C67.7181 40.006 68.0401 39.9407 68.3481 39.81C68.6561 39.6793 68.9035 39.5113 69.0901 39.306ZM76.8818 40.622C76.7511 40.6873 76.5878 40.7573 76.3918 40.832C76.1958 40.9067 75.9718 40.972 75.7198 41.028C75.4771 41.084 75.2251 41.112 74.9638 41.112C74.6465 41.112 74.3525 41.056 74.0818 40.944C73.8111 40.832 73.5918 40.6547 73.4238 40.412C73.2651 40.16 73.1858 39.838 73.1858 39.446V34.868H72.2198V33.678H73.1858V31.27H74.7258V33.678H76.3218V34.868H74.7258V38.956C74.7445 39.208 74.8238 39.3947 74.9638 39.516C75.1131 39.6373 75.2951 39.698 75.5098 39.698C75.7245 39.698 75.9298 39.6607 76.1258 39.586C76.3218 39.5113 76.4665 39.4507 76.5598 39.404L76.8818 40.622ZM81.1707 41.14C80.6014 41.14 80.0834 41.042 79.6167 40.846C79.1594 40.6407 78.7627 40.3653 78.4267 40.02C78.0907 39.6653 77.8294 39.264 77.6427 38.816C77.4654 38.3587 77.3767 37.8733 77.3767 37.36C77.3767 36.6693 77.5354 36.0393 77.8527 35.47C78.17 34.8913 78.6134 34.4293 79.1827 34.084C79.752 33.7293 80.4194 33.552 81.1847 33.552C81.95 33.552 82.608 33.7293 83.1587 34.084C83.7187 34.4293 84.1527 34.8867 84.4607 35.456C84.7687 36.0253 84.9227 36.6367 84.9227 37.29C84.9227 37.402 84.918 37.5093 84.9087 37.612C84.8994 37.7053 84.89 37.7847 84.8807 37.85H79.0147C79.0427 38.2793 79.1594 38.6573 79.3647 38.984C79.5794 39.3013 79.85 39.5533 80.1767 39.74C80.5034 39.9173 80.8534 40.006 81.2267 40.006C81.6374 40.006 82.0247 39.9033 82.3887 39.698C82.762 39.4927 83.014 39.222 83.1447 38.886L84.4607 39.264C84.302 39.6187 84.0594 39.9407 83.7327 40.23C83.4154 40.51 83.0374 40.734 82.5987 40.902C82.16 41.0607 81.684 41.14 81.1707 41.14ZM78.9727 36.828H83.3967C83.3687 36.408 83.2474 36.0393 83.0327 35.722C82.8274 35.3953 82.5614 35.1433 82.2347 34.966C81.9174 34.7793 81.5627 34.686 81.1707 34.686C80.788 34.686 80.4334 34.7793 80.1067 34.966C79.7894 35.1433 79.528 35.3953 79.3227 35.722C79.1174 36.0393 79.0007 36.408 78.9727 36.828ZM34.7248 57V49.678H36.2648V57H34.7248ZM34.7248 48.474V46.78H36.2648V48.474H34.7248ZM49.3154 57H47.7754V52.898C47.7754 52.2167 47.6634 51.7173 47.4394 51.4C47.2154 51.0827 46.8887 50.924 46.4594 50.924C46.0301 50.924 45.6287 51.0873 45.2554 51.414C44.8914 51.7313 44.6347 52.1467 44.4854 52.66V57H42.9454V52.898C42.9454 52.2167 42.8334 51.7173 42.6094 51.4C42.3854 51.0827 42.0634 50.924 41.6434 50.924C41.2141 50.924 40.8127 51.0827 40.4394 51.4C40.0754 51.7173 39.8141 52.1327 39.6554 52.646V57H38.1154V49.678H39.5154V51.148C39.8047 50.6347 40.1827 50.2427 40.6494 49.972C41.1254 49.692 41.6667 49.552 42.2734 49.552C42.8801 49.552 43.3561 49.7107 43.7014 50.028C44.0561 50.3453 44.2754 50.742 44.3594 51.218C44.6767 50.6767 45.0641 50.266 45.5214 49.986C45.9881 49.6967 46.5201 49.552 47.1174 49.552C47.5467 49.552 47.9061 49.6313 48.1954 49.79C48.4847 49.9487 48.7087 50.168 48.8674 50.448C49.0261 50.7187 49.1381 51.036 49.2034 51.4C49.2781 51.7547 49.3154 52.1327 49.3154 52.534V57ZM50.558 54.858C50.558 54.3913 50.6887 53.9853 50.95 53.64C51.2207 53.2853 51.5893 53.0147 52.056 52.828C52.5227 52.632 53.064 52.534 53.68 52.534C54.0067 52.534 54.338 52.5573 54.674 52.604C55.0193 52.6507 55.3227 52.7253 55.584 52.828V52.366C55.584 51.8527 55.43 51.4513 55.122 51.162C54.814 50.8727 54.3707 50.728 53.792 50.728C53.3813 50.728 52.994 50.8027 52.63 50.952C52.266 51.092 51.8787 51.2927 51.468 51.554L50.95 50.518C51.4353 50.1913 51.9207 49.9487 52.406 49.79C52.9007 49.6313 53.4187 49.552 53.96 49.552C54.94 49.552 55.71 49.8133 56.27 50.336C56.8393 50.8493 57.124 51.582 57.124 52.534V55.264C57.124 55.4413 57.152 55.5673 57.208 55.642C57.2733 55.7167 57.3807 55.7587 57.53 55.768V57C57.39 57.028 57.264 57.0467 57.152 57.056C57.04 57.0653 56.9467 57.07 56.872 57.07C56.5453 57.07 56.298 56.9907 56.13 56.832C55.962 56.6733 55.864 56.4867 55.836 56.272L55.794 55.852C55.4767 56.2627 55.0707 56.58 54.576 56.804C54.0813 57.028 53.582 57.14 53.078 57.14C52.5927 57.14 52.1587 57.042 51.776 56.846C51.3933 56.6407 51.0947 56.3653 50.88 56.02C50.6653 55.6747 50.558 55.2873 50.558 54.858ZM55.22 55.306C55.332 55.1847 55.4207 55.0633 55.486 54.942C55.5513 54.8207 55.584 54.7133 55.584 54.62V53.78C55.3227 53.6773 55.0473 53.6027 54.758 53.556C54.4687 53.5 54.184 53.472 53.904 53.472C53.344 53.472 52.8867 53.584 52.532 53.808C52.1867 54.032 52.014 54.34 52.014 54.732C52.014 54.9467 52.07 55.152 52.182 55.348C52.3033 55.544 52.4713 55.7027 52.686 55.824C52.91 55.9453 53.1853 56.006 53.512 56.006C53.848 56.006 54.17 55.9407 54.478 55.81C54.786 55.6793 55.0333 55.5113 55.22 55.306ZM61.8904 57.07C61.3957 57.07 60.943 56.972 60.5324 56.776C60.1217 56.5707 59.767 56.2953 59.4684 55.95C59.179 55.6047 58.9504 55.208 58.7824 54.76C58.6237 54.312 58.5444 53.8407 58.5444 53.346C58.5444 52.8233 58.6284 52.3333 58.7964 51.876C58.9644 51.4187 59.1977 51.0173 59.4964 50.672C59.8044 50.3173 60.1637 50.042 60.5744 49.846C60.985 49.65 61.4424 49.552 61.9464 49.552C62.5344 49.552 63.0477 49.692 63.4864 49.972C63.9344 50.252 64.303 50.616 64.5924 51.064V49.678H65.9504V56.79C65.9504 57.4993 65.7777 58.1013 65.4324 58.596C65.0964 59.0907 64.6344 59.4687 64.0464 59.73C63.4584 59.9913 62.7957 60.122 62.0584 60.122C61.2464 60.122 60.5744 59.982 60.0424 59.702C59.5104 59.422 59.0577 59.0393 58.6844 58.554L59.5524 57.742C59.8324 58.134 60.1917 58.4327 60.6304 58.638C61.0784 58.8433 61.5544 58.946 62.0584 58.946C62.4784 58.946 62.8657 58.8667 63.2204 58.708C63.5844 58.5587 63.8737 58.3207 64.0884 57.994C64.303 57.6767 64.4104 57.2753 64.4104 56.79V55.67C64.149 56.1087 63.7897 56.454 63.3324 56.706C62.875 56.9487 62.3944 57.07 61.8904 57.07ZM62.3944 55.824C62.6277 55.824 62.8517 55.7867 63.0664 55.712C63.281 55.628 63.477 55.5207 63.6544 55.39C63.841 55.25 63.9997 55.096 64.1304 54.928C64.261 54.7507 64.3544 54.564 64.4104 54.368V52.45C64.289 52.1327 64.1164 51.8573 63.8924 51.624C63.6684 51.3813 63.4164 51.1947 63.1364 51.064C62.8564 50.9333 62.5717 50.868 62.2824 50.868C61.9464 50.868 61.643 50.9427 61.3724 51.092C61.111 51.232 60.887 51.4233 60.7004 51.666C60.5137 51.8993 60.369 52.1653 60.2664 52.464C60.1637 52.7627 60.1124 53.0707 60.1124 53.388C60.1124 53.724 60.1684 54.0367 60.2804 54.326C60.4017 54.6153 60.565 54.8767 60.7704 55.11C60.9757 55.334 61.2184 55.5113 61.4984 55.642C61.7784 55.7633 62.077 55.824 62.3944 55.824ZM71.115 57.14C70.5457 57.14 70.0277 57.042 69.561 56.846C69.1037 56.6407 68.707 56.3653 68.371 56.02C68.035 55.6653 67.7737 55.264 67.587 54.816C67.4097 54.3587 67.321 53.8733 67.321 53.36C67.321 52.6693 67.4797 52.0393 67.797 51.47C68.1144 50.8913 68.5577 50.4293 69.127 50.084C69.6964 49.7293 70.3637 49.552 71.129 49.552C71.8944 49.552 72.5524 49.7293 73.103 50.084C73.663 50.4293 74.097 50.8867 74.405 51.456C74.713 52.0253 74.867 52.6367 74.867 53.29C74.867 53.402 74.8624 53.5093 74.853 53.612C74.8437 53.7053 74.8344 53.7847 74.825 53.85H68.959C68.987 54.2793 69.1037 54.6573 69.309 54.984C69.5237 55.3013 69.7944 55.5533 70.121 55.74C70.4477 55.9173 70.7977 56.006 71.171 56.006C71.5817 56.006 71.969 55.9033 72.333 55.698C72.7064 55.4927 72.9584 55.222 73.089 54.886L74.405 55.264C74.2464 55.6187 74.0037 55.9407 73.677 56.23C73.3597 56.51 72.9817 56.734 72.543 56.902C72.1044 57.0607 71.6284 57.14 71.115 57.14ZM68.917 52.828H73.341C73.313 52.408 73.1917 52.0393 72.977 51.722C72.7717 51.3953 72.5057 51.1433 72.179 50.966C71.8617 50.7793 71.507 50.686 71.115 50.686C70.7324 50.686 70.3777 50.7793 70.051 50.966C69.7337 51.1433 69.4724 51.3953 69.267 51.722C69.0617 52.0393 68.945 52.408 68.917 52.828Z" fill="#CE2B28"/>
<path d="M279.964 41.07C279.264 41.07 278.63 40.93 278.06 40.65C277.491 40.37 276.996 39.992 276.576 39.516C276.166 39.0307 275.848 38.4893 275.624 37.892C275.4 37.2853 275.288 36.6647 275.288 36.03C275.288 35.3673 275.405 34.7373 275.638 34.14C275.881 33.5333 276.212 32.9967 276.632 32.53C277.062 32.054 277.561 31.6807 278.13 31.41C278.7 31.13 279.32 30.99 279.992 30.99C280.692 30.99 281.327 31.1347 281.896 31.424C282.466 31.7133 282.956 32.1007 283.366 32.586C283.777 33.0713 284.094 33.6127 284.318 34.21C284.542 34.8073 284.654 35.4187 284.654 36.044C284.654 36.7067 284.538 37.3413 284.304 37.948C284.071 38.5453 283.74 39.082 283.31 39.558C282.89 40.0247 282.396 40.3933 281.826 40.664C281.257 40.9347 280.636 41.07 279.964 41.07ZM276.562 36.03C276.562 36.534 276.642 37.024 276.8 37.5C276.968 37.9667 277.202 38.382 277.5 38.746C277.799 39.11 278.158 39.3993 278.578 39.614C278.998 39.8287 279.465 39.936 279.978 39.936C280.51 39.936 280.986 39.824 281.406 39.6C281.826 39.376 282.181 39.0773 282.47 38.704C282.769 38.3307 282.993 37.9107 283.142 37.444C283.301 36.9773 283.38 36.506 283.38 36.03C283.38 35.526 283.296 35.0407 283.128 34.574C282.97 34.1073 282.736 33.692 282.428 33.328C282.13 32.9547 281.77 32.6653 281.35 32.46C280.94 32.2453 280.482 32.138 279.978 32.138C279.446 32.138 278.97 32.25 278.55 32.474C278.13 32.6887 277.771 32.9827 277.472 33.356C277.183 33.7293 276.959 34.1493 276.8 34.616C276.642 35.0733 276.562 35.5447 276.562 36.03ZM290.004 34.77C289.388 34.7793 288.842 34.938 288.366 35.246C287.9 35.5447 287.568 35.96 287.372 36.492V41H286.14V33.692H287.288V35.386C287.54 34.882 287.872 34.476 288.282 34.168C288.702 33.8507 289.141 33.6733 289.598 33.636C289.692 33.636 289.771 33.636 289.836 33.636C289.902 33.636 289.958 33.6407 290.004 33.65V34.77ZM290.614 37.36C290.614 36.6693 290.754 36.0393 291.034 35.47C291.323 34.8913 291.715 34.4293 292.21 34.084C292.714 33.7387 293.288 33.566 293.932 33.566C294.52 33.566 295.047 33.72 295.514 34.028C295.98 34.336 296.344 34.7093 296.606 35.148V30.78H297.838V39.6C297.838 39.7493 297.866 39.8613 297.922 39.936C297.987 40.0013 298.09 40.0387 298.23 40.048V41C297.996 41.0373 297.814 41.056 297.684 41.056C297.441 41.056 297.226 40.972 297.04 40.804C296.862 40.636 296.774 40.4493 296.774 40.244V39.628C296.484 40.0947 296.097 40.4633 295.612 40.734C295.126 41.0047 294.622 41.14 294.1 41.14C293.596 41.14 293.129 41.042 292.7 40.846C292.28 40.6407 291.911 40.3607 291.594 40.006C291.286 39.6513 291.043 39.25 290.866 38.802C290.698 38.3447 290.614 37.864 290.614 37.36ZM296.606 38.438V36.338C296.494 36.0207 296.312 35.736 296.06 35.484C295.808 35.2227 295.523 35.0173 295.206 34.868C294.898 34.7093 294.59 34.63 294.282 34.63C293.918 34.63 293.586 34.7093 293.288 34.868C292.998 35.0173 292.746 35.2227 292.532 35.484C292.326 35.736 292.168 36.0253 292.056 36.352C291.944 36.6787 291.888 37.0193 291.888 37.374C291.888 37.738 291.948 38.0833 292.07 38.41C292.2 38.7367 292.378 39.026 292.602 39.278C292.835 39.53 293.101 39.726 293.4 39.866C293.708 40.006 294.039 40.076 294.394 40.076C294.618 40.076 294.846 40.034 295.08 39.95C295.322 39.866 295.551 39.7493 295.766 39.6C295.98 39.4507 296.162 39.278 296.312 39.082C296.461 38.8767 296.559 38.662 296.606 38.438ZM303.128 41.14C302.578 41.14 302.074 41.042 301.616 40.846C301.168 40.6407 300.776 40.3653 300.44 40.02C300.114 39.6653 299.857 39.2593 299.67 38.802C299.493 38.3447 299.404 37.8593 299.404 37.346C299.404 36.6553 299.563 36.0253 299.88 35.456C300.198 34.8867 300.636 34.4293 301.196 34.084C301.766 33.7387 302.414 33.566 303.142 33.566C303.88 33.566 304.519 33.7433 305.06 34.098C305.611 34.4433 306.036 34.9007 306.334 35.47C306.642 36.03 306.796 36.6367 306.796 37.29C306.796 37.3833 306.792 37.4767 306.782 37.57C306.782 37.654 306.778 37.7193 306.768 37.766H300.706C300.744 38.242 300.874 38.6667 301.098 39.04C301.332 39.404 301.63 39.6933 301.994 39.908C302.358 40.1133 302.75 40.216 303.17 40.216C303.618 40.216 304.038 40.104 304.43 39.88C304.832 39.656 305.107 39.362 305.256 38.998L306.32 39.292C306.162 39.6467 305.924 39.964 305.606 40.244C305.298 40.524 304.93 40.7433 304.5 40.902C304.08 41.0607 303.623 41.14 303.128 41.14ZM300.664 36.912H305.648C305.611 36.436 305.476 36.016 305.242 35.652C305.009 35.288 304.71 35.0033 304.346 34.798C303.982 34.5927 303.581 34.49 303.142 34.49C302.713 34.49 302.316 34.5927 301.952 34.798C301.588 35.0033 301.29 35.288 301.056 35.652C300.832 36.016 300.702 36.436 300.664 36.912ZM312.03 34.77C311.414 34.7793 310.868 34.938 310.392 35.246C309.925 35.5447 309.594 35.96 309.398 36.492V41H308.166V33.692H309.314V35.386C309.566 34.882 309.897 34.476 310.308 34.168C310.728 33.8507 311.167 33.6733 311.624 33.636C311.717 33.636 311.797 33.636 311.862 33.636C311.927 33.636 311.983 33.6407 312.03 33.65V34.77Z" fill="#C0C1C9"/>
<path d="M145.174 35.96C145.174 35.3533 145.277 34.7607 145.482 34.182C145.697 33.594 146.005 33.062 146.406 32.586C146.817 32.1007 147.316 31.718 147.904 31.438C148.492 31.1487 149.159 31.004 149.906 31.004C150.793 31.004 151.553 31.2093 152.188 31.62C152.823 32.0213 153.294 32.5393 153.602 33.174L152.608 33.818C152.412 33.398 152.16 33.0667 151.852 32.824C151.553 32.572 151.227 32.3947 150.872 32.292C150.527 32.1893 150.186 32.138 149.85 32.138C149.299 32.138 148.809 32.25 148.38 32.474C147.96 32.698 147.605 32.9967 147.316 33.37C147.027 33.7433 146.807 34.1633 146.658 34.63C146.518 35.0873 146.448 35.5493 146.448 36.016C146.448 36.5293 146.532 37.024 146.7 37.5C146.877 37.976 147.12 38.396 147.428 38.76C147.736 39.124 148.1 39.4133 148.52 39.628C148.94 39.8427 149.397 39.95 149.892 39.95C150.237 39.95 150.592 39.8893 150.956 39.768C151.32 39.6467 151.661 39.46 151.978 39.208C152.295 38.9467 152.547 38.6107 152.734 38.2L153.784 38.774C153.579 39.2687 153.261 39.6887 152.832 40.034C152.403 40.3793 151.922 40.6407 151.39 40.818C150.867 40.9953 150.349 41.084 149.836 41.084C149.155 41.084 148.529 40.9393 147.96 40.65C147.391 40.3513 146.896 39.9593 146.476 39.474C146.065 38.9793 145.743 38.4287 145.51 37.822C145.286 37.206 145.174 36.5853 145.174 35.96ZM161.507 41H160.275V36.912C160.275 36.1653 160.14 35.6053 159.869 35.232C159.608 34.8587 159.23 34.672 158.735 34.672C158.418 34.672 158.096 34.756 157.769 34.924C157.452 35.092 157.172 35.3207 156.929 35.61C156.686 35.89 156.509 36.2167 156.397 36.59V41H155.165V30.78H156.397V35.26C156.686 34.7373 157.078 34.3267 157.573 34.028C158.077 33.72 158.618 33.566 159.197 33.566C159.636 33.566 160 33.6453 160.289 33.804C160.588 33.9533 160.826 34.168 161.003 34.448C161.18 34.728 161.306 35.0547 161.381 35.428C161.465 35.792 161.507 36.1933 161.507 36.632V41ZM166.615 41.14C166.064 41.14 165.565 41.042 165.117 40.846C164.669 40.6407 164.281 40.3653 163.955 40.02C163.628 39.6653 163.376 39.2593 163.199 38.802C163.021 38.3447 162.933 37.864 162.933 37.36C162.933 36.8467 163.021 36.3613 163.199 35.904C163.376 35.4467 163.628 35.0453 163.955 34.7C164.281 34.3453 164.669 34.07 165.117 33.874C165.574 33.6687 166.073 33.566 166.615 33.566C167.165 33.566 167.665 33.6687 168.113 33.874C168.561 34.07 168.948 34.3453 169.275 34.7C169.611 35.0453 169.867 35.4467 170.045 35.904C170.222 36.3613 170.311 36.8467 170.311 37.36C170.311 37.864 170.222 38.3447 170.045 38.802C169.867 39.2593 169.615 39.6653 169.289 40.02C168.962 40.3653 168.57 40.6407 168.113 40.846C167.665 41.042 167.165 41.14 166.615 41.14ZM164.193 37.374C164.193 37.878 164.3 38.3353 164.515 38.746C164.739 39.1567 165.033 39.4833 165.397 39.726C165.761 39.9593 166.167 40.076 166.615 40.076C167.063 40.076 167.469 39.9547 167.833 39.712C168.206 39.4693 168.5 39.1427 168.715 38.732C168.939 38.312 169.051 37.85 169.051 37.346C169.051 36.842 168.939 36.3847 168.715 35.974C168.5 35.5633 168.206 35.2367 167.833 34.994C167.469 34.7513 167.063 34.63 166.615 34.63C166.167 34.63 165.761 34.756 165.397 35.008C165.033 35.2507 164.739 35.5773 164.515 35.988C164.3 36.3987 164.193 36.8607 164.193 37.374ZM174.996 41.14C174.445 41.14 173.946 41.042 173.498 40.846C173.05 40.6407 172.662 40.3653 172.336 40.02C172.009 39.6653 171.757 39.2593 171.58 38.802C171.402 38.3447 171.314 37.864 171.314 37.36C171.314 36.8467 171.402 36.3613 171.58 35.904C171.757 35.4467 172.009 35.0453 172.336 34.7C172.662 34.3453 173.05 34.07 173.498 33.874C173.955 33.6687 174.454 33.566 174.996 33.566C175.546 33.566 176.046 33.6687 176.494 33.874C176.942 34.07 177.329 34.3453 177.656 34.7C177.992 35.0453 178.248 35.4467 178.426 35.904C178.603 36.3613 178.692 36.8467 178.692 37.36C178.692 37.864 178.603 38.3447 178.426 38.802C178.248 39.2593 177.996 39.6653 177.67 40.02C177.343 40.3653 176.951 40.6407 176.494 40.846C176.046 41.042 175.546 41.14 174.996 41.14ZM172.574 37.374C172.574 37.878 172.681 38.3353 172.896 38.746C173.12 39.1567 173.414 39.4833 173.778 39.726C174.142 39.9593 174.548 40.076 174.996 40.076C175.444 40.076 175.85 39.9547 176.214 39.712C176.587 39.4693 176.881 39.1427 177.096 38.732C177.32 38.312 177.432 37.85 177.432 37.346C177.432 36.842 177.32 36.3847 177.096 35.974C176.881 35.5633 176.587 35.2367 176.214 34.994C175.85 34.7513 175.444 34.63 174.996 34.63C174.548 34.63 174.142 34.756 173.778 35.008C173.414 35.2507 173.12 35.5773 172.896 35.988C172.681 36.3987 172.574 36.8607 172.574 37.374ZM182.69 41.14C182.084 41.14 181.514 41.042 180.982 40.846C180.45 40.6407 179.993 40.3373 179.61 39.936L180.086 39.068C180.506 39.46 180.926 39.74 181.346 39.908C181.766 40.076 182.196 40.16 182.634 40.16C183.138 40.16 183.549 40.0667 183.866 39.88C184.184 39.684 184.342 39.3993 184.342 39.026C184.342 38.7553 184.258 38.5547 184.09 38.424C183.932 38.2933 183.703 38.186 183.404 38.102C183.106 38.0087 182.751 37.906 182.34 37.794C181.836 37.6447 181.412 37.486 181.066 37.318C180.721 37.15 180.46 36.94 180.282 36.688C180.105 36.436 180.016 36.1187 180.016 35.736C180.016 35.2693 180.138 34.8773 180.38 34.56C180.623 34.2333 180.954 33.986 181.374 33.818C181.804 33.65 182.289 33.566 182.83 33.566C183.372 33.566 183.862 33.65 184.3 33.818C184.739 33.986 185.117 34.2333 185.434 34.56L184.874 35.414C184.585 35.1153 184.268 34.896 183.922 34.756C183.577 34.6067 183.19 34.532 182.76 34.532C182.508 34.532 182.261 34.5647 182.018 34.63C181.776 34.686 181.575 34.7933 181.416 34.952C181.258 35.1013 181.178 35.316 181.178 35.596C181.178 35.8293 181.239 36.016 181.36 36.156C181.491 36.2867 181.678 36.3987 181.92 36.492C182.172 36.5853 182.476 36.688 182.83 36.8C183.381 36.9587 183.857 37.1173 184.258 37.276C184.669 37.4347 184.986 37.64 185.21 37.892C185.434 38.144 185.546 38.494 185.546 38.942C185.546 39.6327 185.285 40.174 184.762 40.566C184.24 40.9487 183.549 41.14 182.69 41.14ZM190.254 41.14C189.704 41.14 189.2 41.042 188.742 40.846C188.294 40.6407 187.902 40.3653 187.566 40.02C187.24 39.6653 186.983 39.2593 186.796 38.802C186.619 38.3447 186.53 37.8593 186.53 37.346C186.53 36.6553 186.689 36.0253 187.006 35.456C187.324 34.8867 187.762 34.4293 188.322 34.084C188.892 33.7387 189.54 33.566 190.268 33.566C191.006 33.566 191.645 33.7433 192.186 34.098C192.737 34.4433 193.162 34.9007 193.46 35.47C193.768 36.03 193.922 36.6367 193.922 37.29C193.922 37.3833 193.918 37.4767 193.908 37.57C193.908 37.654 193.904 37.7193 193.894 37.766H187.832C187.87 38.242 188 38.6667 188.224 39.04C188.458 39.404 188.756 39.6933 189.12 39.908C189.484 40.1133 189.876 40.216 190.296 40.216C190.744 40.216 191.164 40.104 191.556 39.88C191.958 39.656 192.233 39.362 192.382 38.998L193.446 39.292C193.288 39.6467 193.05 39.964 192.732 40.244C192.424 40.524 192.056 40.7433 191.626 40.902C191.206 41.0607 190.749 41.14 190.254 41.14ZM187.79 36.912H192.774C192.737 36.436 192.602 36.016 192.368 35.652C192.135 35.288 191.836 35.0033 191.472 34.798C191.108 34.5927 190.707 34.49 190.268 34.49C189.839 34.49 189.442 34.5927 189.078 34.798C188.714 35.0033 188.416 35.288 188.182 35.652C187.958 36.016 187.828 36.436 187.79 36.912ZM198.786 42.988C198.907 42.9973 199.029 43.0067 199.15 43.016C199.271 43.0347 199.365 43.044 199.43 43.044C199.579 43.044 199.71 42.9927 199.822 42.89C199.934 42.7873 200.055 42.5867 200.186 42.288C200.326 41.9987 200.503 41.5693 200.718 41L197.624 33.692H198.926L201.39 39.754L203.616 33.692H204.834L201.278 42.918C201.194 43.1327 201.068 43.3333 200.9 43.52C200.741 43.716 200.536 43.87 200.284 43.982C200.032 44.094 199.729 44.15 199.374 44.15C199.29 44.15 199.201 44.1453 199.108 44.136C199.024 44.1267 198.917 44.108 198.786 44.08V42.988ZM209.011 41.14C208.461 41.14 207.961 41.042 207.513 40.846C207.065 40.6407 206.678 40.3653 206.351 40.02C206.025 39.6653 205.773 39.2593 205.595 38.802C205.418 38.3447 205.329 37.864 205.329 37.36C205.329 36.8467 205.418 36.3613 205.595 35.904C205.773 35.4467 206.025 35.0453 206.351 34.7C206.678 34.3453 207.065 34.07 207.513 33.874C207.971 33.6687 208.47 33.566 209.011 33.566C209.562 33.566 210.061 33.6687 210.509 33.874C210.957 34.07 211.345 34.3453 211.671 34.7C212.007 35.0453 212.264 35.4467 212.441 35.904C212.619 36.3613 212.707 36.8467 212.707 37.36C212.707 37.864 212.619 38.3447 212.441 38.802C212.264 39.2593 212.012 39.6653 211.685 40.02C211.359 40.3653 210.967 40.6407 210.509 40.846C210.061 41.042 209.562 41.14 209.011 41.14ZM206.589 37.374C206.589 37.878 206.697 38.3353 206.911 38.746C207.135 39.1567 207.429 39.4833 207.793 39.726C208.157 39.9593 208.563 40.076 209.011 40.076C209.459 40.076 209.865 39.9547 210.229 39.712C210.603 39.4693 210.897 39.1427 211.111 38.732C211.335 38.312 211.447 37.85 211.447 37.346C211.447 36.842 211.335 36.3847 211.111 35.974C210.897 35.5633 210.603 35.2367 210.229 34.994C209.865 34.7513 209.459 34.63 209.011 34.63C208.563 34.63 208.157 34.756 207.793 35.008C207.429 35.2507 207.135 35.5773 206.911 35.988C206.697 36.3987 206.589 36.8607 206.589 37.374ZM214.13 38.074V33.692H215.362V37.836C215.362 38.5827 215.493 39.1427 215.754 39.516C216.015 39.8893 216.403 40.076 216.916 40.076C217.252 40.076 217.574 40.006 217.882 39.866C218.199 39.7167 218.484 39.5067 218.736 39.236C218.988 38.9653 219.184 38.6433 219.324 38.27V33.692H220.556V39.6C220.556 39.7493 220.584 39.8613 220.64 39.936C220.705 40.0013 220.808 40.0387 220.948 40.048V41C220.808 41.0187 220.696 41.028 220.612 41.028C220.537 41.0373 220.463 41.042 220.388 41.042C220.155 41.042 219.954 40.972 219.786 40.832C219.618 40.6827 219.529 40.5007 219.52 40.286L219.492 39.432C219.175 39.9733 218.745 40.3933 218.204 40.692C217.672 40.9907 217.089 41.14 216.454 41.14C215.689 41.14 215.11 40.8833 214.718 40.37C214.326 39.8473 214.13 39.082 214.13 38.074ZM226.472 34.77C225.856 34.7793 225.31 34.938 224.834 35.246C224.368 35.5447 224.036 35.96 223.84 36.492V41H222.608V33.692H223.756V35.386C224.008 34.882 224.34 34.476 224.75 34.168C225.17 33.8507 225.609 33.6733 226.066 33.636C226.16 33.636 226.239 33.636 226.304 33.636C226.37 33.636 226.426 33.6407 226.472 33.65V34.77ZM164.479 57.14C163.881 57.14 163.349 56.9907 162.883 56.692C162.416 56.3933 162.047 56.0153 161.777 55.558V59.982H160.545V49.692H161.637V51.064C161.926 50.616 162.304 50.2567 162.771 49.986C163.237 49.706 163.746 49.566 164.297 49.566C164.801 49.566 165.263 49.6687 165.683 49.874C166.103 50.0793 166.467 50.3593 166.775 50.714C167.083 51.0687 167.321 51.4747 167.489 51.932C167.666 52.38 167.755 52.8513 167.755 53.346C167.755 54.0367 167.615 54.6713 167.335 55.25C167.064 55.8287 166.681 56.2907 166.187 56.636C165.692 56.972 165.123 57.14 164.479 57.14ZM164.101 56.076C164.465 56.076 164.791 56.0013 165.081 55.852C165.379 55.6933 165.631 55.488 165.837 55.236C166.051 54.9747 166.215 54.6807 166.327 54.354C166.439 54.0273 166.495 53.6913 166.495 53.346C166.495 52.982 166.429 52.6367 166.299 52.31C166.177 51.9833 166 51.694 165.767 51.442C165.543 51.19 165.277 50.994 164.969 50.854C164.67 50.7047 164.343 50.63 163.989 50.63C163.765 50.63 163.531 50.672 163.289 50.756C163.055 50.84 162.831 50.9613 162.617 51.12C162.402 51.2693 162.22 51.442 162.071 51.638C161.921 51.834 161.823 52.044 161.777 52.268V54.354C161.917 54.6713 162.103 54.9607 162.337 55.222C162.57 55.4833 162.841 55.6933 163.149 55.852C163.457 56.0013 163.774 56.076 164.101 56.076ZM173.131 50.77C172.515 50.7793 171.969 50.938 171.493 51.246C171.027 51.5447 170.695 51.96 170.499 52.492V57H169.267V49.692H170.415V51.386C170.667 50.882 170.999 50.476 171.409 50.168C171.829 49.8507 172.268 49.6733 172.725 49.636C172.819 49.636 172.898 49.636 172.963 49.636C173.029 49.636 173.085 49.6407 173.131 49.65V50.77ZM177.368 57.14C176.817 57.14 176.318 57.042 175.87 56.846C175.422 56.6407 175.034 56.3653 174.708 56.02C174.381 55.6653 174.129 55.2593 173.952 54.802C173.774 54.3447 173.686 53.864 173.686 53.36C173.686 52.8467 173.774 52.3613 173.952 51.904C174.129 51.4467 174.381 51.0453 174.708 50.7C175.034 50.3453 175.422 50.07 175.87 49.874C176.327 49.6687 176.826 49.566 177.368 49.566C177.918 49.566 178.418 49.6687 178.866 49.874C179.314 50.07 179.701 50.3453 180.028 50.7C180.364 51.0453 180.62 51.4467 180.798 51.904C180.975 52.3613 181.064 52.8467 181.064 53.36C181.064 53.864 180.975 54.3447 180.798 54.802C180.62 55.2593 180.368 55.6653 180.042 56.02C179.715 56.3653 179.323 56.6407 178.866 56.846C178.418 57.042 177.918 57.14 177.368 57.14ZM174.946 53.374C174.946 53.878 175.053 54.3353 175.268 54.746C175.492 55.1567 175.786 55.4833 176.15 55.726C176.514 55.9593 176.92 56.076 177.368 56.076C177.816 56.076 178.222 55.9547 178.586 55.712C178.959 55.4693 179.253 55.1427 179.468 54.732C179.692 54.312 179.804 53.85 179.804 53.346C179.804 52.842 179.692 52.3847 179.468 51.974C179.253 51.5633 178.959 51.2367 178.586 50.994C178.222 50.7513 177.816 50.63 177.368 50.63C176.92 50.63 176.514 50.756 176.15 51.008C175.786 51.2507 175.492 51.5773 175.268 51.988C175.053 52.3987 174.946 52.8607 174.946 53.374ZM182.081 53.36C182.081 52.6693 182.221 52.0393 182.501 51.47C182.79 50.8913 183.182 50.4293 183.677 50.084C184.181 49.7387 184.755 49.566 185.399 49.566C185.987 49.566 186.514 49.72 186.981 50.028C187.447 50.336 187.811 50.7093 188.073 51.148V46.78H189.305V55.6C189.305 55.7493 189.333 55.8613 189.389 55.936C189.454 56.0013 189.557 56.0387 189.697 56.048V57C189.463 57.0373 189.281 57.056 189.151 57.056C188.908 57.056 188.693 56.972 188.507 56.804C188.329 56.636 188.241 56.4493 188.241 56.244V55.628C187.951 56.0947 187.564 56.4633 187.079 56.734C186.593 57.0047 186.089 57.14 185.567 57.14C185.063 57.14 184.596 57.042 184.167 56.846C183.747 56.6407 183.378 56.3607 183.061 56.006C182.753 55.6513 182.51 55.25 182.333 54.802C182.165 54.3447 182.081 53.864 182.081 53.36ZM188.073 54.438V52.338C187.961 52.0207 187.779 51.736 187.527 51.484C187.275 51.2227 186.99 51.0173 186.673 50.868C186.365 50.7093 186.057 50.63 185.749 50.63C185.385 50.63 185.053 50.7093 184.755 50.868C184.465 51.0173 184.213 51.2227 183.999 51.484C183.793 51.736 183.635 52.0253 183.523 52.352C183.411 52.6787 183.355 53.0193 183.355 53.374C183.355 53.738 183.415 54.0833 183.537 54.41C183.667 54.7367 183.845 55.026 184.069 55.278C184.302 55.53 184.568 55.726 184.867 55.866C185.175 56.006 185.506 56.076 185.861 56.076C186.085 56.076 186.313 56.034 186.547 55.95C186.789 55.866 187.018 55.7493 187.233 55.6C187.447 55.4507 187.629 55.278 187.779 55.082C187.928 54.8767 188.026 54.662 188.073 54.438ZM191.291 54.074V49.692H192.523V53.836C192.523 54.5827 192.654 55.1427 192.915 55.516C193.177 55.8893 193.564 56.076 194.077 56.076C194.413 56.076 194.735 56.006 195.043 55.866C195.361 55.7167 195.645 55.5067 195.897 55.236C196.149 54.9653 196.345 54.6433 196.485 54.27V49.692H197.717V55.6C197.717 55.7493 197.745 55.8613 197.801 55.936C197.867 56.0013 197.969 56.0387 198.109 56.048V57C197.969 57.0187 197.857 57.028 197.773 57.028C197.699 57.0373 197.624 57.042 197.549 57.042C197.316 57.042 197.115 56.972 196.947 56.832C196.779 56.6827 196.691 56.5007 196.681 56.286L196.653 55.432C196.336 55.9733 195.907 56.3933 195.365 56.692C194.833 56.9907 194.25 57.14 193.615 57.14C192.85 57.14 192.271 56.8833 191.879 56.37C191.487 55.8473 191.291 55.082 191.291 54.074ZM203.003 57.14C202.453 57.14 201.949 57.042 201.491 56.846C201.043 56.6407 200.651 56.3607 200.315 56.006C199.989 55.6513 199.732 55.2453 199.545 54.788C199.368 54.3307 199.279 53.8453 199.279 53.332C199.279 52.6413 199.433 52.0113 199.741 51.442C200.049 50.8727 200.483 50.42 201.043 50.084C201.603 49.7387 202.252 49.566 202.989 49.566C203.708 49.566 204.333 49.7293 204.865 50.056C205.407 50.3733 205.808 50.8027 206.069 51.344L204.865 51.722C204.679 51.3767 204.417 51.1107 204.081 50.924C203.745 50.728 203.372 50.63 202.961 50.63C202.513 50.63 202.103 50.7467 201.729 50.98C201.365 51.2133 201.076 51.5353 200.861 51.946C200.647 52.3473 200.539 52.8093 200.539 53.332C200.539 53.8453 200.647 54.312 200.861 54.732C201.085 55.1427 201.379 55.4693 201.743 55.712C202.117 55.9547 202.527 56.076 202.975 56.076C203.265 56.076 203.54 56.0247 203.801 55.922C204.072 55.8193 204.305 55.684 204.501 55.516C204.707 55.3387 204.847 55.1473 204.921 54.942L206.125 55.306C205.976 55.6607 205.747 55.978 205.439 56.258C205.141 56.5287 204.781 56.7433 204.361 56.902C203.951 57.0607 203.498 57.14 203.003 57.14ZM211.301 56.636C211.199 56.6827 211.059 56.7433 210.881 56.818C210.704 56.8927 210.499 56.958 210.265 57.014C210.032 57.07 209.785 57.098 209.523 57.098C209.225 57.098 208.949 57.0467 208.697 56.944C208.445 56.832 208.245 56.664 208.095 56.44C207.946 56.2067 207.871 55.9173 207.871 55.572V50.658H206.877V49.692H207.871V47.256H209.103V49.692H210.741V50.658H209.103V55.194C209.122 55.4553 209.211 55.6513 209.369 55.782C209.528 55.9033 209.715 55.964 209.929 55.964C210.172 55.964 210.396 55.922 210.601 55.838C210.807 55.754 210.942 55.6933 211.007 55.656L211.301 56.636Z" fill="#C0C1C9"/>
</svg>
